<?xml version="1.0" standalone="no"?>
<!DOCTYPE svg PUBLIC "-//W3C//DTD SVG 20010904//EN"
 "http://www.w3.org/TR/2001/REC-SVG-20010904/DTD/svg10.dtd">
<svg version="1.0" xmlns="http://www.w3.org/2000/svg"
 width="565.000000pt" height="565.000000pt" viewBox="0 0 565.000000 565.000000"
 preserveAspectRatio="xMidYMid meet">
<metadata>
Created by potrace 1.11, written by Peter Selinger 2001-2013
</metadata>
<g transform="translate(0.000000,565.000000) scale(0.100000,-0.100000)"
fill="#000000" stroke="none">
<path d="M3028 5628 c-27 -41 -131 -144 -198 -195 -108 -82 -216 -141 -313
-170 l-49 -14 44 -28 c166 -108 198 -292 73 -414 -79 -77 -236 -107 -363 -68
-252 76 -346 337 -170 474 24 19 29 27 18 31 -182 64 -297 152 -387 297 -20
33 -37 59 -39 59 -2 0 -2 -195 1 -433 l5 -433 -28 -10 c-21 -8 -31 -20 -36
-44 -7 -37 14 -80 39 -80 19 0 17 22 20 -223 l3 -208 -23 -9 c-32 -12 -61
-112 -45 -155 5 -15 -2 -32 -27 -65 -99 -130 -169 -373 -208 -720 -28 -250
-27 -799 1 -1065 18 -169 39 -331 50 -389 19 -102 29 -141 50 -211 66 -207
169 -313 404 -415 127 -55 191 -90 216 -118 41 -48 47 -119 29 -358 -6 -91 -9
-111 -26 -173 -15 -54 -78 -103 -164 -126 -120 -33 -215 -65 -232 -78 -7 -5
-13 -6 -13 -3 0 14 -89 -55 -95 -73 -7 -23 14 -61 32 -61 7 0 13 -4 13 -8 0
-22 260 -92 395 -107 33 -4 62 -9 65 -10 42 -25 750 -25 840 0 8 2 35 6 60 9
25 3 56 8 70 11 14 3 39 8 55 10 154 28 339 100 389 153 41 44 45 104 12 157
-33 53 -65 120 -70 151 -3 13 -7 32 -10 42 -8 27 -35 220 -41 302 -4 41 -9 86
-11 100 -23 139 -22 762 1 800 2 3 6 21 9 40 9 59 61 234 135 455 91 274 133
423 165 576 3 13 7 33 9 44 43 198 52 474 22 638 -4 20 -1 27 10 27 14 0 49
33 51 48 0 4 4 29 8 55 7 38 5 51 -8 66 -9 10 -16 21 -16 25 0 8 75 181 134
309 28 60 40 77 56 77 59 0 88 61 52 110 l-20 27 119 269 c144 323 138 310
182 404 19 41 38 86 42 99 7 24 6 24 -33 -7 -60 -48 -188 -108 -267 -126 -41
-9 -105 -14 -157 -13 l-86 3 19 -39 c26 -50 34 -121 20 -173 -15 -57 -78 -124
-147 -159 -54 -27 -68 -30 -164 -30 -98 0 -110 2 -175 33 -159 75 -233 206
-194 346 23 82 146 171 247 178 23 2 42 3 42 3 0 1 -35 37 -78 80 -118 121
-199 254 -261 430 -18 49 -33 91 -35 92 -2 2 -10 -7 -18 -19z"/>
</g>
</svg>
