<?xml version="1.0" standalone="no"?>
<!DOCTYPE svg PUBLIC "-//W3C//DTD SVG 20010904//EN"
 "http://www.w3.org/TR/2001/REC-SVG-20010904/DTD/svg10.dtd">
<svg version="1.0" xmlns="http://www.w3.org/2000/svg"
 width="300.000000pt" height="300.000000pt" viewBox="0 0 300.000000 300.000000"
 preserveAspectRatio="xMidYMid meet">
<metadata>
Created by potrace 1.11, written by Peter Selinger 2001-2013
</metadata>
<g transform="translate(0.000000,300.000000) scale(0.100000,-0.100000)"
fill="#000000" stroke="none">
<path d="M1571 2928 c-51 -56 -132 -112 -196 -136 -25 -9 -45 -20 -45 -24 0
-4 13 -17 30 -29 36 -27 62 -89 55 -132 -12 -67 -99 -119 -184 -111 -114 11
-199 101 -177 188 3 14 17 38 31 54 l25 29 -47 18 c-45 17 -143 104 -170 150
-9 16 -11 -29 -9 -202 3 -206 2 -224 -16 -239 -22 -21 -23 -38 -1 -59 13 -14
17 -38 17 -124 1 -91 -1 -108 -17 -121 -11 -9 -18 -29 -19 -50 0 -20 -12 -54
-28 -80 -39 -63 -62 -137 -76 -240 -3 -25 -8 -47 -9 -50 -9 -16 -19 -193 -19
-340 0 -295 34 -552 85 -651 36 -72 77 -107 183 -158 131 -63 141 -74 140
-159 -1 -100 -12 -183 -28 -206 -13 -20 -43 -34 -156 -71 -162 -54 -125 -101
115 -146 78 -15 404 -19 500 -6 160 22 280 66 305 112 12 23 11 31 -12 78 -29
59 -35 75 -43 132 -3 23 -7 50 -9 62 -8 38 -18 215 -20 335 -3 143 14 232 84
446 96 294 128 473 109 616 -5 43 -3 54 13 70 16 15 19 28 15 64 -3 32 0 56
13 81 9 20 28 62 41 93 17 39 30 58 44 60 21 3 34 46 17 57 -6 3 29 93 83 214
51 114 89 207 84 207 -4 0 -11 -5 -14 -10 -18 -28 -111 -62 -186 -67 -72 -5
-77 -7 -68 -24 61 -115 -86 -228 -232 -177 -53 18 -110 78 -119 124 -12 72 41
140 123 154 l29 5 -51 55 c-49 53 -131 198 -131 232 0 31 -15 25 -59 -24z"/>
</g>
</svg>
