<?xml version="1.0" encoding="UTF-8" standalone="no"?>
<svg
   xmlns:dc="http://purl.org/dc/elements/1.1/"
   xmlns:cc="http://creativecommons.org/ns#"
   xmlns:rdf="http://www.w3.org/1999/02/22-rdf-syntax-ns#"
   xmlns:svg="http://www.w3.org/2000/svg"
   xmlns="http://www.w3.org/2000/svg"
   xmlns:sodipodi="http://sodipodi.sourceforge.net/DTD/sodipodi-0.dtd"
   xmlns:inkscape="http://www.inkscape.org/namespaces/inkscape"
   version="1.1"
   id="Capa_1"
   x="0px"
   y="0px"
   width="90px"
   height="90px"
   viewBox="0 0 90 90"
   style="enable-background:new 0 0 90 90;"
   xml:space="preserve"
   inkscape:version="0.91 r13725"
   sodipodi:docname="github-logo.svg"><metadata
     id="metadata8"><rdf:RDF><cc:Work
         rdf:about=""><dc:format>image/svg+xml</dc:format><dc:type
           rdf:resource="http://purl.org/dc/dcmitype/StillImage" /><dc:title></dc:title></cc:Work></rdf:RDF></metadata><defs
     id="defs6" /><sodipodi:namedview
     pagecolor="#ffffff"
     bordercolor="#666666"
     borderopacity="1"
     objecttolerance="10"
     gridtolerance="10"
     guidetolerance="10"
     inkscape:pageopacity="0"
     inkscape:pageshadow="2"
     inkscape:window-width="1366"
     inkscape:window-height="705"
     id="namedview4"
     showgrid="false"
     inkscape:zoom="2.6222222"
     inkscape:cx="45"
     inkscape:cy="45"
     inkscape:window-x="-8"
     inkscape:window-y="-8"
     inkscape:window-maximized="1"
     inkscape:current-layer="Capa_1" /><path
     style="fill:#828282;fill-opacity:1;stroke:none;stroke-width:0.1;stroke-miterlimit:4;stroke-dasharray:none;stroke-opacity:1"
     d="M 45 0 A 45 45 0 0 0 0.052734375 43.958984 C 5.0833322 42.183843 12.121274 42.404577 18.917969 42.390625 C 16.831969 35.850625 17.554516 25.46275 22.103516 21.59375 C 20.814516 18.34475 21.215391 13.03 22.900391 10.5 C 27.979391 10.728 31.059 12.942641 34.25 15.056641 C 38.207 13.931641 42.367062 13.371922 47.789062 13.669922 C 50.069063 13.795922 52.440203 14.820203 54.158203 14.658203 C 55.843203 14.500203 57.701891 12.610672 59.337891 11.888672 C 61.468891 10.947672 63.270984 10.588 65.708984 10.5 C 66.878984 13.157 67.636859 17.569781 66.505859 20.800781 C 71.130859 24.749781 72.721281 34.350312 70.488281 42.195312 C 77.064647 42.69712 84.893759 41.957764 89.962891 43.962891 A 45 45 0 0 0 45 0 z M 16.341797 42.423828 C 15.308947 42.427086 14.225375 42.552344 13.34375 42.589844 C 8.9926357 42.781014 3.5261577 43.32051 0.05078125 43.96875 A 45 45 0 0 0 0 45 A 45 45 0 0 0 45 90 A 45 45 0 0 0 90 45 A 45 45 0 0 0 89.962891 43.970703 C 85.228 43.360361 78.775907 42.172897 72.679688 42.587891 C 71.521687 42.666891 69.806625 42.544828 69.890625 44.173828 C 76.964625 44.728828 83.994734 45.333484 89.802734 47.146484 C 84.041734 46.205484 77.048625 44.771266 69.890625 44.572266 C 66.933625 50.407266 60.982578 53.274906 52.767578 53.878906 C 53.650578 55.800906 55.342859 56.532047 55.755859 59.623047 C 56.371859 64.241047 54.790609 71.004031 56.349609 74.082031 C 57.097609 75.557031 58.316672 75.596422 59.138672 76.857422 C 57.126672 79.238422 52.138312 76.589031 51.570312 74.082031 C 50.597313 69.787031 53.052906 63.128797 50.378906 60.216797 C 50.566906 64.901797 49.271125 71.481016 50.578125 75.666016 C 51.093125 77.312016 52.580875 77.946641 52.171875 79.431641 C 42.819875 80.380641 46.728219 67.327094 45.199219 59.621094 C 43.788219 59.722094 44.407344 61.73475 44.402344 62.59375 C 44.362344 70.11775 45.942031 80.437641 37.832031 79.431641 C 37.595031 77.849641 38.920781 77.313141 39.425781 75.869141 C 40.904781 71.636141 39.148172 65.32775 39.826172 60.21875 C 36.731172 62.55275 40.152375 70.698 38.234375 74.875 C 37.129375 77.279 33.568188 78.324953 30.867188 77.251953 C 31.219188 75.461953 33.067563 75.750031 33.851562 74.082031 C 34.947562 71.758031 33.859 68.409656 34.25 64.972656 C 28.521 66.116656 24.077344 64.805031 21.902344 61.207031 C 20.929344 59.592031 20.687719 57.688813 19.511719 56.257812 C 18.341719 54.825812 16.471688 54.631359 15.929688 52.693359 C 23.024687 50.985359 23.297922 59.99675 29.669922 60.21875 C 31.623922 60.28975 32.639266 59.655469 34.447266 59.230469 C 34.953266 56.958469 36.035813 55.262172 37.632812 54.076172 C 29.703812 52.991172 23.156328 50.522266 20.111328 44.572266 C 12.903328 44.926266 6.3062656 45.88975 0.19726562 47.34375 C 5.7422656 45.32975 12.581109 44.608094 19.912109 44.371094 C 19.642109 42.748594 18.063213 42.418398 16.341797 42.423828 z "
     id="path4136" /></svg>