<?xml version="1.0" encoding="UTF-8" standalone="no"?>
<svg
   xmlns:dc="http://purl.org/dc/elements/1.1/"
   xmlns:cc="http://creativecommons.org/ns#"
   xmlns:rdf="http://www.w3.org/1999/02/22-rdf-syntax-ns#"
   xmlns:svg="http://www.w3.org/2000/svg"
   xmlns="http://www.w3.org/2000/svg"
   xmlns:sodipodi="http://sodipodi.sourceforge.net/DTD/sodipodi-0.dtd"
   xmlns:inkscape="http://www.inkscape.org/namespaces/inkscape"
   version="1.1"
   id="Capa_1"
   x="0px"
   y="0px"
   width="450"
   height="450"
   viewBox="0 0 450 450"
   xml:space="preserve"
   inkscape:version="0.91 r13725"
   sodipodi:docname="linkedin-logo.svg"><metadata
     id="metadata8"><rdf:RDF><cc:Work
         rdf:about=""><dc:format>image/svg+xml</dc:format><dc:type
           rdf:resource="http://purl.org/dc/dcmitype/StillImage" /><dc:title></dc:title></cc:Work></rdf:RDF></metadata><defs
     id="defs6" /><sodipodi:namedview
     pagecolor="#ffffff"
     bordercolor="#666666"
     borderopacity="1"
     objecttolerance="10"
     gridtolerance="10"
     guidetolerance="10"
     inkscape:pageopacity="0"
     inkscape:pageshadow="2"
     inkscape:window-width="1366"
     inkscape:window-height="705"
     id="namedview4"
     showgrid="false"
     fit-margin-top="0"
     fit-margin-left="0"
     fit-margin-right="0"
     fit-margin-bottom="0"
     inkscape:zoom="0.54868791"
     inkscape:cx="224.99991"
     inkscape:cy="225.00009"
     inkscape:window-x="-8"
     inkscape:window-y="-8"
     inkscape:window-maximized="1"
     inkscape:current-layer="Capa_1" /><path
     style="fill:#828282;fill-opacity:1;stroke:none;stroke-width:0.1;stroke-miterlimit:4;stroke-dasharray:none;stroke-opacity:1"
     d="M 225,0 A 225,225 0 0 0 0,225 225,225 0 0 0 63.373047,381.50586 l 0,-211.89257 71.091803,0 0,213.86718 -69.021491,0 A 225,225 0 0 0 225,450 225,225 0 0 0 384.48438,383.48047 l -64.72852,0 0,-114.41992 c 0,-28.74289 -10.28386,-48.35937 -36.01757,-48.35937 -19.64443,0 -31.33353,13.21999 -36.47657,26.00781 -1.87552,4.57159 -2.35937,10.93468 -2.35937,17.33398 l 0,119.4375 -71.11719,0 c 0,0 0.95782,-193.78934 0,-213.86718 l 71.11133,0 0,30.31445 c 9.44781,-14.55151 26.3194,-35.33789 64.08594,-35.33789 46.79019,-7.7e-4 81.86718,30.5666 81.86718,96.25781 l 0,115.79883 A 225,225 0 0 0 450,225 225,225 0 0 0 225,0 Z m 19.89649,199.92774 c -0.14421,0.22673 -0.33107,0.47161 -0.4668,0.6914 l 0.4668,0 0,-0.6914 z M 99.392578,66.519531 c 24.331712,0 39.288522,15.959783 39.755862,36.945309 0,20.5313 -15.42402,36.97071 -40.224612,36.97071 l -0.47461,0 c -23.845856,0 -39.298828,-16.44249 -39.298828,-36.97071 0,-20.985526 15.912798,-36.945309 40.242188,-36.945309 z"
     id="path4136"
     inkscape:connector-curvature="0" /></svg>