<?xml version="1.0" encoding="UTF-8" standalone="no"?>
<svg
   xmlns:dc="http://purl.org/dc/elements/1.1/"
   xmlns:cc="http://creativecommons.org/ns#"
   xmlns:rdf="http://www.w3.org/1999/02/22-rdf-syntax-ns#"
   xmlns:svg="http://www.w3.org/2000/svg"
   xmlns="http://www.w3.org/2000/svg"
   xmlns:sodipodi="http://sodipodi.sourceforge.net/DTD/sodipodi-0.dtd"
   xmlns:inkscape="http://www.inkscape.org/namespaces/inkscape"
   version="1.1"
   id="Capa_1"
   x="0px"
   y="0px"
   width="430.117"
   height="430.117"
   viewBox="0 0 430.117 430.117"
   xml:space="preserve"
   inkscape:version="0.91 r13725"
   sodipodi:docname="twitter-logo.svg"><metadata
     id="metadata10"><rdf:RDF><cc:Work
         rdf:about=""><dc:format>image/svg+xml</dc:format><dc:type
           rdf:resource="http://purl.org/dc/dcmitype/StillImage" /><dc:title></dc:title></cc:Work></rdf:RDF></metadata><defs
     id="defs8" /><sodipodi:namedview
     pagecolor="#ffffff"
     bordercolor="#666666"
     borderopacity="1"
     objecttolerance="10"
     gridtolerance="10"
     guidetolerance="10"
     inkscape:pageopacity="0"
     inkscape:pageshadow="2"
     inkscape:window-width="1366"
     inkscape:window-height="705"
     id="namedview6"
     showgrid="false"
     showguides="false"
     inkscape:zoom="0.54868791"
     inkscape:cx="215.0585"
     inkscape:cy="215.0585"
     inkscape:window-x="-8"
     inkscape:window-y="-8"
     inkscape:window-maximized="1"
     inkscape:current-layer="Capa_1" /><path
     style="fill:#828282;fill-opacity:1;stroke:none;stroke-width:0.1;stroke-miterlimit:4;stroke-dasharray:none;stroke-opacity:1"
     d="M 215.05859 0 A 215.0585 215.0585 0 0 0 0 215.05859 A 215.0585 215.0585 0 0 0 13.111328 288.46094 C 55.466403 317.59551 118.22957 316.22068 159.5293 273.5625 C 132.6723 277.4915 113.12486 251.14787 146.13086 236.92188 C 116.44386 240.16087 99.940734 224.38161 93.177734 210.97461 C 100.13273 203.69161 107.8053 200.31203 122.6543 199.33203 C 90.162297 191.65203 78.161328 175.77114 74.486328 156.49414 C 83.510328 154.33314 94.792891 152.48845 100.96289 153.31445 C 72.484891 138.43545 62.601109 116.06137 64.162109 99.234375 C 115.02111 118.11437 147.42058 133.27564 174.51758 147.80664 C 184.17658 152.95464 194.9438 162.227 207.0918 174 C 222.5628 133.113 241.68025 90.961697 274.40625 70.054688 C 273.86525 74.798687 271.31508 79.207219 267.95508 82.824219 C 277.26208 74.389209 289.30813 68.587297 301.57812 66.904297 C 300.15913 76.107307 286.9133 81.288781 278.9043 84.300781 C 284.9713 82.421781 317.19336 68.046365 320.69336 76.234375 C 324.84636 85.543375 298.47352 89.833359 293.97852 91.443359 C 290.63752 92.558359 287.28642 93.800766 283.98242 95.134766 C 324.81942 91.066766 363.79473 124.74106 375.17773 166.53906 C 375.98073 169.54906 376.7973 172.88258 377.5293 176.39258 C 391.1858 181.47343 414.92179 177.03182 425.56055 172.14258 A 215.0585 215.0585 0 0 0 215.05859 0 z M 426.17383 174.88086 C 418.75646 187.66003 403.25676 196.83419 381.38477 198.63867 C 392.9229 203.44367 414.58446 206.08707 429.71289 203.62891 A 215.0585 215.0585 0 0 0 426.17383 174.88086 z M 429.72461 203.97266 C 420.11641 214.09635 404.73865 223.182 378.79883 222.96094 C 345.44813 358.08245 131.06367 419.23673 16.9375 298.17383 A 215.0585 215.0585 0 0 0 215.05859 430.11719 A 215.0585 215.0585 0 0 0 430.11719 215.05859 A 215.0585 215.0585 0 0 0 429.72461 203.97266 z "
     id="path4138" /><g
     id="g3"
     transform="translate(818.31583,-153.0925)" /></svg>