<?xml version="1.0" encoding="UTF-8" standalone="no"?>
<!-- Created with Inkscape (http://www.inkscape.org/) -->

<svg
   xmlns:dc="http://purl.org/dc/elements/1.1/"
   xmlns:cc="http://creativecommons.org/ns#"
   xmlns:rdf="http://www.w3.org/1999/02/22-rdf-syntax-ns#"
   xmlns:svg="http://www.w3.org/2000/svg"
   xmlns="http://www.w3.org/2000/svg"
   xmlns:sodipodi="http://sodipodi.sourceforge.net/DTD/sodipodi-0.dtd"
   xmlns:inkscape="http://www.inkscape.org/namespaces/inkscape"
   width="25mm"
   height="25mm"
   viewBox="0 0 88.582677 88.582677"
   id="svg2"
   version="1.1"
   inkscape:version="0.91 r13725"
   sodipodi:docname="hisroyalredness.svg"
   inkscape:export-filename="C:\Users\KeithF\Source\Repos\HisRoyalRedness.github.io\image\hrr_square.png"
   inkscape:export-xdpi="304.79999"
   inkscape:export-ydpi="304.79999">
  <defs
     id="defs4" />
  <sodipodi:namedview
     id="base"
     pagecolor="#ffffff"
     bordercolor="#666666"
     borderopacity="1.0"
     inkscape:pageopacity="0.0"
     inkscape:pageshadow="2"
     inkscape:zoom="5.6"
     inkscape:cx="-48.251088"
     inkscape:cy="25.117434"
     inkscape:document-units="px"
     inkscape:current-layer="layer1"
     showgrid="false"
     inkscape:window-width="1680"
     inkscape:window-height="998"
     inkscape:window-x="-8"
     inkscape:window-y="-8"
     inkscape:window-maximized="1"
     fit-margin-top="0"
     fit-margin-left="0"
     fit-margin-right="0"
     fit-margin-bottom="0" />
  <metadata
     id="metadata7">
    <rdf:RDF>
      <cc:Work
         rdf:about="">
        <dc:format>image/svg+xml</dc:format>
        <dc:type
           rdf:resource="http://purl.org/dc/dcmitype/StillImage" />
        <dc:title />
      </cc:Work>
    </rdf:RDF>
  </metadata>
  <g
     inkscape:label="Layer 1"
     inkscape:groupmode="layer"
     id="layer1"
     transform="translate(-421.28349,-403.11127)">
    <g
       id="g4394"
       transform="translate(21.055971,-0.5572703)">
      <g
         transform="translate(144.19928,6.5659916)"
         id="g3439">
        <path
           inkscape:connector-curvature="0"
           id="path3353"
           d="m 284.57354,484.02151 c -5.13176,-1.23284 -5.01267,-2.68831 0.34235,-4.18409 3.80937,-1.06405 3.95147,-1.25932 4.24653,-5.83561 0.30508,-4.73156 0.30235,-4.73599 -4.08459,-6.61644 -5.32098,-2.28084 -6.53188,-4.78001 -7.5943,-15.67379 -1.04883,-10.75433 0.0335,-22.29761 2.48419,-26.49372 4.43991,-7.60216 16.35119,-9.79155 26.0633,-4.79063 9.03354,4.65151 10.60676,13.45584 5.19661,29.0821 -2.87002,8.28953 -3.08897,9.81432 -2.64048,18.38852 0.27761,5.30751 1.03045,10.00182 1.74139,10.85845 2.04464,2.46364 0.55918,4.0685 -4.94093,5.33808 -6.08685,1.40501 -14.7891,1.37455 -20.81407,-0.0729 z"
           style="fill:#db536c" />
        <path
           inkscape:connector-curvature="0"
           id="path3351"
           d="m 284.35715,483.11331 c -2.5,-1.05068 -2.5,-1.05068 0.5,-2.07088 4.91246,-1.67057 5.62107,-2.69562 5.29816,-7.66407 -0.27984,-4.30568 -0.55482,-4.7069 -4.4749,-6.52909 -5.00729,-2.32756 -6.1032,-4.47104 -7.38712,-14.44834 -1.20746,-9.38318 -0.31381,-20.21121 2.13749,-25.89914 1.48911,-3.4553 2.76223,-4.69322 6.54972,-6.36861 8.27204,-3.65911 20.75535,-0.54992 24.71672,6.15614 2.64853,4.4836 2.14307,13.287 -1.34007,23.33953 -3.82028,11.02555 -3.99531,19.78961 -0.60615,30.3516 0.60898,1.89781 0.19636,2.33026 -3.09561,3.24442 -4.82458,1.33975 -19.0139,1.26877 -22.29824,-0.11156 z"
           style="fill:#f62a4c" />
        <path
           inkscape:connector-curvature="0"
           id="path3349"
           d="m 289.16826,479.11468 c 0.75978,-0.9713 1.18029,-3.49431 1,-6 -0.28768,-3.99832 -0.62923,-4.47171 -4.5358,-6.28676 -2.32358,-1.07957 -4.44753,-2.54356 -4.71989,-3.25332 -0.34494,-0.89891 0.24445,-0.80584 1.94242,0.30671 1.7346,1.13656 4.15367,1.49835 8.38769,1.25446 3.27253,-0.18851 6.26066,-0.0321 6.64029,0.34749 0.83102,0.83102 -5.79299,11.98746 -8.27183,13.93175 -1.57369,1.23434 -1.61921,1.20347 -0.44288,-0.30034 z m 18.26784,-5.40724 c 0.048,-1.16495 0.28494,-1.4019 0.60416,-0.60417 0.28887,0.72188 0.25335,1.58437 -0.0789,1.91667 -0.33229,0.33229 -0.56864,-0.25834 -0.52522,-1.3125 z m -1.5328,-7.91667 c -0.66118,-4.56781 -0.45591,-7.90958 0.85994,-14 0.95063,-4.4 2.24479,-11.31126 2.87592,-15.35834 1.06147,-6.8068 0.99041,-7.64511 -0.94804,-11.18403 -1.83293,-3.34626 -1.87444,-3.6876 -0.33124,-2.72385 5.69655,3.55756 6.64192,14.16952 2.31235,25.95662 -1.62547,4.42529 -2.92474,10.46633 -3.29269,15.3096 -0.60777,8 -0.60777,8 -1.47624,2 z m -24.54615,-41.87755 c 0,-0.20766 0.7875,-0.99516 1.75,-1.75 1.58606,-1.24388 1.62143,-1.20851 0.37755,0.37755 -1.30636,1.66575 -2.12755,2.19548 -2.12755,1.37245 z"
           style="fill:#d62b4a" />
      </g>
      <g
         transform="matrix(0.97908753,0.20343944,-0.20343944,0.97908753,184.87771,-141.7929)"
         id="g4333">
        <path
           inkscape:connector-curvature="0"
           style="fill:#fbe158;fill-opacity:1;stroke:none;stroke-width:0.1;stroke-miterlimit:4;stroke-dasharray:none;stroke-opacity:1"
           d="m 368.74106,481.0625 a 12.589286,15.892858 19.192686 0 1 -7.54687,7.93359 5.4927044,4.3562827 0 0 1 3.91992,4.16993 5.4927044,4.3562827 0 0 1 -5.49219,4.35742 5.4927044,4.3562827 0 0 1 -5.49219,-4.35742 5.4927044,4.3562827 0 0 1 1.375,-2.875 12.589286,15.892858 19.192686 0 1 -2.96484,-0.53125 12.589286,15.892858 19.192686 0 1 -4.91406,-3.64063 l 0,0.41406 2.97656,13.64063 18.17383,0 0,-19.04688 a 15.892858,12.589286 70.807314 0 1 -0.0352,-0.0645 z"
           id="rect4356-7-2-6-1" />
        <path
           inkscape:connector-curvature="0"
           style="fill:#facb1b;fill-opacity:1;stroke:none;stroke-width:0.1;stroke-miterlimit:4;stroke-dasharray:none;stroke-opacity:1"
           d="m 368.81137,481.0625 a 12.589286,15.892858 19.192686 0 1 -0.0351,0.0645 l 0,19.04688 18.17382,0 2.97657,-13.64063 0,-0.41406 a 15.892858,12.589286 70.807314 0 1 -4.91407,3.64063 15.892858,12.589286 70.807314 0 1 -2.96484,0.53125 5.4927044,4.3562827 0 0 1 1.375,2.875 5.4927044,4.3562827 0 0 1 -5.49219,4.35742 5.4927044,4.3562827 0 0 1 -5.49218,-4.35742 5.4927044,4.3562827 0 0 1 3.91992,-4.16993 15.892858,12.589286 70.807314 0 1 -7.54688,-7.93359 z"
           id="rect4356-37-3-3" />
        <path
           inkscape:connector-curvature="0"
           style="fill:#f79392;fill-opacity:1;stroke:none;stroke-width:0.1;stroke-miterlimit:4;stroke-dasharray:none;stroke-opacity:1"
           d="m 368.77621,485.94226 0,5.35742 -2.67773,-2.67773 2.67773,-2.67969 z"
           id="rect4441-5-3-9-4" />
        <path
           inkscape:connector-curvature="0"
           style="fill:#fa5655;fill-opacity:1;stroke:none;stroke-width:0.1;stroke-miterlimit:4;stroke-dasharray:none;stroke-opacity:1"
           d="m 368.77628,485.94226 0,5.35742 2.67773,-2.67773 -2.67773,-2.67969 z"
           id="rect4441-3-2-0" />
        <path
           style="fill:#fa5655;fill-opacity:1;stroke:none;stroke-width:0.1;stroke-miterlimit:4;stroke-dasharray:none;stroke-opacity:1"
           d="m 350.60144,500.66494 1.83203,8.39453 16.3125,0 0,-8.39453 -18.14453,0 z"
           id="rect4356-7-4-8-2"
           inkscape:connector-curvature="0" />
        <path
           style="fill:#df2c2c;fill-opacity:1;stroke:none;stroke-width:0.1;stroke-miterlimit:4;stroke-dasharray:none;stroke-opacity:1"
           d="m 368.74597,500.66494 0,8.39453 16.37305,0 1.83203,-8.39453 -18.20508,0 z"
           id="rect4356-4-7-6"
           inkscape:connector-curvature="0" />
        <path
           style="fill:#fbec9a;fill-opacity:1;stroke:none;stroke-width:0.1;stroke-miterlimit:4;stroke-dasharray:none;stroke-opacity:1"
           d="m 350.61414,499.35352 c -0.554,0 -1,0.446 -1,1 l 0,0.14648 c 0,0.554 0.446,1 1,1 l 18.16211,0 18.1621,0 c 0.554,0 1,-0.446 1,-1 l 0,-0.14648 c 0,-0.554 -0.446,-1 -1,-1 l -18.1621,0 -18.16211,0 z"
           id="rect4430-12-3-8-3"
           inkscape:connector-curvature="0" />
        <path
           inkscape:connector-curvature="0"
           style="fill:#fbec9a;fill-opacity:1;stroke:none;stroke-width:0.1;stroke-miterlimit:4;stroke-dasharray:none;stroke-opacity:1"
           d="m 368.77564,503.77344 a 1.2626907,1.1364216 0 0 0 -1.26172,1.13476 1.2626907,1.1364216 0 0 0 1.26172,1.13672 1.2626907,1.1364216 0 0 0 1.26171,-1.13672 1.2626907,1.1364216 0 0 0 -1.26171,-1.13476 z"
           id="path4443-5-9-5-8-6" />
        <ellipse
           style="fill:#fbec9a;fill-opacity:1;stroke:none;stroke-width:0.1;stroke-miterlimit:4;stroke-dasharray:none;stroke-opacity:1"
           id="path4443-1-9-7-0-1"
           cx="-359.59015"
           cy="504.90991"
           rx="1.2626907"
           ry="1.1364216"
           transform="scale(-1,1)" />
        <ellipse
           style="fill:#fbec9a;fill-opacity:1;stroke:none;stroke-width:0.1;stroke-miterlimit:4;stroke-dasharray:none;stroke-opacity:1"
           id="path4443-1-50-1-2"
           cx="377.96234"
           cy="504.90991"
           rx="1.2626907"
           ry="1.1364216" />
        <path
           style="fill:#fbe158;fill-opacity:1;stroke:none;stroke-width:0.1;stroke-miterlimit:4;stroke-dasharray:none;stroke-opacity:1"
           d="m 352.44617,507.93945 c -0.554,0 -1,0.446 -1,1 l 0,1.09375 c 0,0.554 0.446,1 1,1 l 16.33008,0 16.33007,0 c 0.55401,0 1,-0.446 1,-1 l 0,-1.09375 c 0,-0.554 -0.44599,-1 -1,-1 l -16.33007,0 -16.33008,0 z"
           id="rect4424-0-7-1-5"
           inkscape:connector-curvature="0" />
      </g>
    </g>
  </g>
</svg>
